<svg width="24" height="25" viewBox="0 0 24 25" fill="none" xmlns="http://www.w3.org/2000/svg">
<path fill-rule="evenodd" clip-rule="evenodd" d="M5 16.75C5.19891 16.75 5.38968 16.829 5.53033 16.9697C5.67098 17.1103 5.75 17.3011 5.75 17.5V19.5C5.75 19.638 5.862 19.75 6 19.75H18C18.0663 19.75 18.1299 19.7237 18.1768 19.6768C18.2237 19.6299 18.25 19.5663 18.25 19.5V17.5C18.25 17.3011 18.329 17.1103 18.4697 16.9697C18.6103 16.829 18.8011 16.75 19 16.75C19.1989 16.75 19.3897 16.829 19.5303 16.9697C19.671 17.1103 19.75 17.3011 19.75 17.5V19.5C19.75 19.9641 19.5656 20.4092 19.2374 20.7374C18.9092 21.0656 18.4641 21.25 18 21.25H6C5.53587 21.25 5.09075 21.0656 4.76256 20.7374C4.43437 20.4092 4.25 19.9641 4.25 19.5V17.5C4.25 17.3011 4.32902 17.1103 4.46967 16.9697C4.61032 16.829 4.80109 16.75 5 16.75Z" fill="#161616"/>
<path d="M10.7379 4.25C10.4896 4.24961 10.2502 4.34253 10.0672 4.51034C9.88419 4.67815 9.77092 4.9086 9.74986 5.156C9.59728 6.90849 9.56988 8.66962 9.66786 10.426C9.42119 10.4393 9.17452 10.455 8.92786 10.473L7.43786 10.582C7.30663 10.5916 7.18015 10.6351 7.0708 10.7083C6.96144 10.7815 6.87295 10.8818 6.81398 10.9994C6.75502 11.117 6.7276 11.2479 6.73442 11.3793C6.74123 11.5107 6.78204 11.6381 6.85286 11.749C7.91561 13.4105 9.28378 14.8553 10.8849 16.007L11.4819 16.436C11.6329 16.5441 11.8141 16.6023 11.9999 16.6023C12.1856 16.6023 12.3668 16.5441 12.5179 16.436L13.1149 16.007C14.7159 14.8553 16.0841 13.4105 17.1469 11.749C17.2177 11.6381 17.2585 11.5107 17.2653 11.3793C17.2721 11.2479 17.2447 11.117 17.1857 10.9994C17.1268 10.8818 17.0383 10.7815 16.9289 10.7083C16.8196 10.6351 16.6931 10.5916 16.5619 10.582L15.0719 10.473C14.8253 10.4552 14.5787 10.4395 14.3319 10.426C14.4302 8.66964 14.4031 6.90851 14.2509 5.156C14.2298 4.90843 14.1164 4.67784 13.9332 4.51C13.7499 4.34217 13.5103 4.24936 13.2619 4.25H10.7379Z" fill="#161616"/>
</svg>
