<svg width="71" height="44" viewBox="0 0 71 44" fill="none" xmlns="http://www.w3.org/2000/svg">
<mask id="path-1-outside-1_101_1043" maskUnits="userSpaceOnUse" x="0" y="0" width="71" height="44" fill="black">
<rect fill="white" width="71" height="44"/>
<path d="M6.63406 22.3C6.63406 19.416 7.27806 16.84 8.56606 14.572C9.88206 12.276 11.6601 10.498 13.9001 9.238C16.1681 7.95 18.7021 7.306 21.5021 7.306C24.7781 7.306 27.6481 8.146 30.1121 9.826C32.5761 11.506 34.2981 13.83 35.2781 16.798H28.5161C27.8441 15.398 26.8921 14.348 25.6601 13.648C24.4561 12.948 23.0561 12.598 21.4601 12.598C19.7521 12.598 18.2261 13.004 16.8821 13.816C15.5661 14.6 14.5301 15.72 13.7741 17.176C13.0461 18.632 12.6821 20.34 12.6821 22.3C12.6821 24.232 13.0461 25.94 13.7741 27.424C14.5301 28.88 15.5661 30.014 16.8821 30.826C18.2261 31.61 19.7521 32.002 21.4601 32.002C23.0561 32.002 24.4561 31.652 25.6601 30.952C26.8921 30.224 27.8441 29.16 28.5161 27.76H35.2781C34.2981 30.756 32.5761 33.094 30.1121 34.774C27.6761 36.426 24.8061 37.252 21.5021 37.252C18.7021 37.252 16.1681 36.622 13.9001 35.362C11.6601 34.074 9.88206 32.296 8.56606 30.028C7.27806 27.76 6.63406 25.184 6.63406 22.3ZM38.9143 11.8V6.382H49.0363V37H42.9883V11.8H38.9143ZM54.1311 11.8V6.382H64.2531V37H58.2051V11.8H54.1311Z"/>
</mask>
<path d="M6.63406 22.3C6.63406 19.416 7.27806 16.84 8.56606 14.572C9.88206 12.276 11.6601 10.498 13.9001 9.238C16.1681 7.95 18.7021 7.306 21.5021 7.306C24.7781 7.306 27.6481 8.146 30.1121 9.826C32.5761 11.506 34.2981 13.83 35.2781 16.798H28.5161C27.8441 15.398 26.8921 14.348 25.6601 13.648C24.4561 12.948 23.0561 12.598 21.4601 12.598C19.7521 12.598 18.2261 13.004 16.8821 13.816C15.5661 14.6 14.5301 15.72 13.7741 17.176C13.0461 18.632 12.6821 20.34 12.6821 22.3C12.6821 24.232 13.0461 25.94 13.7741 27.424C14.5301 28.88 15.5661 30.014 16.8821 30.826C18.2261 31.61 19.7521 32.002 21.4601 32.002C23.0561 32.002 24.4561 31.652 25.6601 30.952C26.8921 30.224 27.8441 29.16 28.5161 27.76H35.2781C34.2981 30.756 32.5761 33.094 30.1121 34.774C27.6761 36.426 24.8061 37.252 21.5021 37.252C18.7021 37.252 16.1681 36.622 13.9001 35.362C11.6601 34.074 9.88206 32.296 8.56606 30.028C7.27806 27.76 6.63406 25.184 6.63406 22.3ZM38.9143 11.8V6.382H49.0363V37H42.9883V11.8H38.9143ZM54.1311 11.8V6.382H64.2531V37H58.2051V11.8H54.1311Z" fill="white"/>
<path d="M8.56606 14.572L3.36051 11.5883L3.35458 11.5987L3.34869 11.609L8.56606 14.572ZM13.9001 9.238L16.8416 14.4675L16.8523 14.4614L16.863 14.4554L13.9001 9.238ZM35.2781 16.798V22.798H43.5778L40.9755 14.9168L35.2781 16.798ZM28.5161 16.798L23.1069 19.3944L24.7407 22.798H28.5161V16.798ZM25.6601 13.648L22.6443 18.835L22.6701 18.85L22.696 18.8647L25.6601 13.648ZM16.8821 13.816L19.9529 18.9706L19.9689 18.9611L19.9848 18.9515L16.8821 13.816ZM13.7741 17.176L8.44909 14.4111L8.42798 14.4518L8.4075 14.4927L13.7741 17.176ZM13.7741 27.424L8.38733 30.0665L8.41751 30.1281L8.44909 30.1889L13.7741 27.424ZM16.8821 30.826L13.7314 35.9322L13.7947 35.9712L13.8588 36.0087L16.8821 30.826ZM25.6601 30.952L28.6758 36.139L28.6942 36.1284L28.7124 36.1176L25.6601 30.952ZM28.5161 27.76V21.76H24.7407L23.1069 25.1636L28.5161 27.76ZM35.2781 27.76L40.9807 29.6254L43.5535 21.76H35.2781V27.76ZM30.1121 34.774L33.4797 39.7398L33.4859 39.7356L33.4921 39.7314L30.1121 34.774ZM13.9001 35.362L10.9092 40.5634L10.9476 40.5855L10.9862 40.6069L13.9001 35.362ZM8.56606 30.028L3.34869 32.9909L3.36245 33.0152L3.37643 33.0393L8.56606 30.028ZM12.6341 22.3C12.6341 20.3423 13.0612 18.8067 13.7834 17.5349L3.34869 11.609C1.49491 14.8733 0.634063 18.4897 0.634063 22.3H12.6341ZM13.7716 17.5557C14.5661 16.1695 15.574 15.1805 16.8416 14.4675L10.9585 4.00855C7.74611 5.81551 5.19801 8.38248 3.36051 11.5883L13.7716 17.5557ZM16.863 14.4554C18.1616 13.7179 19.6619 13.306 21.5021 13.306V1.306C17.7422 1.306 14.1746 2.18208 10.9371 4.02063L16.863 14.4554ZM21.5021 13.306C23.6963 13.306 25.3621 13.8493 26.732 14.7834L33.4921 4.86864C29.934 2.44266 25.8599 1.306 21.5021 1.306V13.306ZM26.732 14.7834C28.0517 15.6831 28.9928 16.8989 29.5806 18.6792L40.9755 14.9168C39.6034 10.7611 37.1005 7.3289 33.4921 4.86864L26.732 14.7834ZM35.2781 10.798H28.5161V22.798H35.2781V10.798ZM33.9252 14.2016C32.7773 11.8102 31.0211 9.79317 28.6241 8.43126L22.696 18.8647C22.763 18.9028 22.9108 18.9858 23.1069 19.3944L33.9252 14.2016ZM28.6758 8.46095C26.4291 7.15473 23.9584 6.598 21.4601 6.598V18.598C22.1538 18.598 22.483 18.7413 22.6443 18.835L28.6758 8.46095ZM21.4601 6.598C18.7576 6.598 16.1409 7.25372 13.7794 8.6805L19.9848 18.9515C20.3112 18.7543 20.7465 18.598 21.4601 18.598V6.598ZM13.8112 8.66139C11.4676 10.0576 9.68149 12.0376 8.44909 14.4111L19.099 19.9409C19.3786 19.4024 19.6645 19.1424 19.9529 18.9706L13.8112 8.66139ZM8.4075 14.4927C7.18633 16.935 6.68206 19.5964 6.68206 22.3H18.6821C18.6821 21.0836 18.9058 20.329 19.1406 19.8593L8.4075 14.4927ZM6.68206 22.3C6.68206 24.994 7.19306 27.6321 8.38733 30.0665L19.1608 24.7814C18.8991 24.2479 18.6821 23.47 18.6821 22.3H6.68206ZM8.44909 30.1889C9.67322 32.5465 11.4355 34.5156 13.7314 35.9322L20.0327 25.7198C19.6966 25.5124 19.3869 25.2135 19.099 24.6591L8.44909 30.1889ZM13.8588 36.0087C16.2085 37.3793 18.7965 38.002 21.4601 38.002V26.002C20.7076 26.002 20.2436 25.8407 19.9053 25.6433L13.8588 36.0087ZM21.4601 38.002C23.9584 38.002 26.4291 37.4453 28.6758 36.139L22.6443 25.765C22.483 25.8587 22.1538 26.002 21.4601 26.002V38.002ZM28.7124 36.1176C31.0545 34.7336 32.785 32.7318 33.9252 30.3564L23.1069 25.1636C22.9031 25.5882 22.7297 25.7144 22.6077 25.7864L28.7124 36.1176ZM28.5161 33.76H35.2781V21.76H28.5161V33.76ZM29.5754 25.8946C28.982 27.7087 28.0368 28.927 26.732 29.8166L33.4921 39.7314C37.1153 37.261 39.6141 33.8033 40.9807 29.6254L29.5754 25.8946ZM26.7445 29.8082C25.4215 30.7054 23.758 31.252 21.5021 31.252V43.252C25.8542 43.252 29.9307 42.1466 33.4797 39.7398L26.7445 29.8082ZM21.5021 31.252C19.6386 31.252 18.1206 30.843 16.8139 30.1171L10.9862 40.6069C14.2155 42.401 17.7655 43.252 21.5021 43.252V31.252ZM16.8909 30.1606C15.5773 29.4052 14.5517 28.3886 13.7557 27.0167L3.37643 33.0393C5.2124 36.2034 7.74284 38.7428 10.9092 40.5634L16.8909 30.1606ZM13.7834 27.065C13.0612 25.7933 12.6341 24.2577 12.6341 22.3H0.634063C0.634063 26.1103 1.49491 29.7267 3.34869 32.9909L13.7834 27.065ZM38.9143 11.8H32.9143V17.8H38.9143V11.8ZM38.9143 6.382V0.381999H32.9143V6.382H38.9143ZM49.0363 6.382H55.0363V0.381999H49.0363V6.382ZM49.0363 37V43H55.0363V37H49.0363ZM42.9883 37H36.9883V43H42.9883V37ZM42.9883 11.8H48.9883V5.8H42.9883V11.8ZM44.9143 11.8V6.382H32.9143V11.8H44.9143ZM38.9143 12.382H49.0363V0.381999H38.9143V12.382ZM43.0363 6.382V37H55.0363V6.382H43.0363ZM49.0363 31H42.9883V43H49.0363V31ZM48.9883 37V11.8H36.9883V37H48.9883ZM42.9883 5.8H38.9143V17.8H42.9883V5.8ZM54.1311 11.8H48.1311V17.8H54.1311V11.8ZM54.1311 6.382V0.381999H48.1311V6.382H54.1311ZM64.2531 6.382H70.2531V0.381999H64.2531V6.382ZM64.2531 37V43H70.2531V37H64.2531ZM58.2051 37H52.2051V43H58.2051V37ZM58.2051 11.8H64.2051V5.8H58.2051V11.8ZM60.1311 11.8V6.382H48.1311V11.8H60.1311ZM54.1311 12.382H64.2531V0.381999H54.1311V12.382ZM58.2531 6.382V37H70.2531V6.382H58.2531ZM64.2531 31H58.2051V43H64.2531V31ZM64.2051 37V11.8H52.2051V37H64.2051ZM58.2051 5.8H54.1311V17.8H58.2051V5.8Z" fill="black" mask="url(#path-1-outside-1_101_1043)"/>
</svg>
