<svg width="119" height="63" viewBox="0 0 119 63" fill="none" xmlns="http://www.w3.org/2000/svg">
<path d="M76.9397 30.4397C76.9397 40.0713 69.1317 47.8793 59.5 47.8793C49.8683 47.8793 42.0603 40.0713 42.0603 30.4397C42.0603 20.808 49.8683 13 59.5 13C69.1317 13 76.9397 20.808 76.9397 30.4397Z" fill="#E3ECF5"/>
<path d="M36.4181 30.4408C36.4181 40.0725 28.6101 47.8805 18.9784 47.8805C23.3384 42.4935 25.3901 40.0725 25.3901 30.4408C25.3901 20.8092 22.569 18.6422 18.9784 13.0012C28.6101 13.0012 36.4181 20.8092 36.4181 30.4408Z" fill="#E3ECF5"/>
<path d="M17.4396 30.4408C17.4396 40.0725 9.63166 47.8805 0 47.8805C5.38578 43.7759 11.028 40.0725 11.028 30.4408C11.028 20.8092 4.87285 16.5905 0 13.0012C9.63166 13.0012 17.4396 20.8092 17.4396 30.4408Z" fill="#E3ECF5"/>
<path d="M82.5819 30.4408C82.5819 20.8092 90.3899 13.0012 100.022 13.0012C95.6616 18.3882 93.6099 20.8092 93.6099 30.4408C93.6099 40.0725 96.4311 42.2394 100.022 47.8805C90.3899 47.8805 82.5819 40.0725 82.5819 30.4408Z" fill="#E3ECF5"/>
<path d="M101.56 30.4408C101.56 20.8092 109.368 13.0012 119 13.0012C113.614 17.1058 107.972 20.8092 107.972 30.4408C107.972 40.0725 114.127 44.2912 119 47.8805C109.368 47.8805 101.56 40.0725 101.56 30.4408Z" fill="#E3ECF5"/>
<mask id="path-2-outside-1_101_1034" maskUnits="userSpaceOnUse" x="20" y="9" width="71" height="44" fill="black">
<rect fill="white" x="20" y="9" width="71" height="44"/>
<path d="M26.6341 31.3C26.6341 28.416 27.2781 25.84 28.5661 23.572C29.8821 21.276 31.6601 19.498 33.9001 18.238C36.1681 16.95 38.7021 16.306 41.5021 16.306C44.7781 16.306 47.6481 17.146 50.1121 18.826C52.5761 20.506 54.2981 22.83 55.2781 25.798H48.5161C47.8441 24.398 46.8921 23.348 45.6601 22.648C44.4561 21.948 43.0561 21.598 41.4601 21.598C39.7521 21.598 38.2261 22.004 36.8821 22.816C35.5661 23.6 34.5301 24.72 33.7741 26.176C33.0461 27.632 32.6821 29.34 32.6821 31.3C32.6821 33.232 33.0461 34.94 33.7741 36.424C34.5301 37.88 35.5661 39.014 36.8821 39.826C38.2261 40.61 39.7521 41.002 41.4601 41.002C43.0561 41.002 44.4561 40.652 45.6601 39.952C46.8921 39.224 47.8441 38.16 48.5161 36.76H55.2781C54.2981 39.756 52.5761 42.094 50.1121 43.774C47.6761 45.426 44.8061 46.252 41.5021 46.252C38.7021 46.252 36.1681 45.622 33.9001 44.362C31.6601 43.074 29.8821 41.296 28.5661 39.028C27.2781 36.76 26.6341 34.184 26.6341 31.3ZM58.9143 20.8V15.382H69.0363V46H62.9883V20.8H58.9143ZM74.1311 20.8V15.382H84.2531V46H78.2051V20.8H74.1311Z"/>
</mask>
<path d="M26.6341 31.3C26.6341 28.416 27.2781 25.84 28.5661 23.572C29.8821 21.276 31.6601 19.498 33.9001 18.238C36.1681 16.95 38.7021 16.306 41.5021 16.306C44.7781 16.306 47.6481 17.146 50.1121 18.826C52.5761 20.506 54.2981 22.83 55.2781 25.798H48.5161C47.8441 24.398 46.8921 23.348 45.6601 22.648C44.4561 21.948 43.0561 21.598 41.4601 21.598C39.7521 21.598 38.2261 22.004 36.8821 22.816C35.5661 23.6 34.5301 24.72 33.7741 26.176C33.0461 27.632 32.6821 29.34 32.6821 31.3C32.6821 33.232 33.0461 34.94 33.7741 36.424C34.5301 37.88 35.5661 39.014 36.8821 39.826C38.2261 40.61 39.7521 41.002 41.4601 41.002C43.0561 41.002 44.4561 40.652 45.6601 39.952C46.8921 39.224 47.8441 38.16 48.5161 36.76H55.2781C54.2981 39.756 52.5761 42.094 50.1121 43.774C47.6761 45.426 44.8061 46.252 41.5021 46.252C38.7021 46.252 36.1681 45.622 33.9001 44.362C31.6601 43.074 29.8821 41.296 28.5661 39.028C27.2781 36.76 26.6341 34.184 26.6341 31.3ZM58.9143 20.8V15.382H69.0363V46H62.9883V20.8H58.9143ZM74.1311 20.8V15.382H84.2531V46H78.2051V20.8H74.1311Z" fill="white"/>
<path d="M28.5661 23.572L23.3605 20.5883L23.3546 20.5987L23.3487 20.609L28.5661 23.572ZM33.9001 18.238L36.8416 23.4675L36.8523 23.4614L36.863 23.4554L33.9001 18.238ZM55.2781 25.798V31.798H63.5778L60.9755 23.9168L55.2781 25.798ZM48.5161 25.798L43.1069 28.3944L44.7407 31.798H48.5161V25.798ZM45.6601 22.648L42.6443 27.835L42.6701 27.85L42.696 27.8647L45.6601 22.648ZM36.8821 22.816L39.9529 27.9706L39.9689 27.9611L39.9848 27.9515L36.8821 22.816ZM33.7741 26.176L28.4491 23.4111L28.428 23.4518L28.4075 23.4927L33.7741 26.176ZM33.7741 36.424L28.3873 39.0665L28.4175 39.1281L28.4491 39.1889L33.7741 36.424ZM36.8821 39.826L33.7314 44.9322L33.7947 44.9712L33.8588 45.0087L36.8821 39.826ZM45.6601 39.952L48.6758 45.139L48.6942 45.1284L48.7124 45.1176L45.6601 39.952ZM48.5161 36.76V30.76H44.7407L43.1069 34.1636L48.5161 36.76ZM55.2781 36.76L60.9807 38.6254L63.5535 30.76H55.2781V36.76ZM50.1121 43.774L53.4797 48.7398L53.4859 48.7356L53.4921 48.7314L50.1121 43.774ZM33.9001 44.362L30.9092 49.5634L30.9476 49.5855L30.9862 49.6069L33.9001 44.362ZM28.5661 39.028L23.3487 41.9909L23.3625 42.0152L23.3764 42.0393L28.5661 39.028ZM32.6341 31.3C32.6341 29.3423 33.0612 27.8067 33.7834 26.5349L23.3487 20.609C21.4949 23.8733 20.6341 27.4897 20.6341 31.3H32.6341ZM33.7716 26.5557C34.5661 25.1695 35.574 24.1805 36.8416 23.4675L30.9585 13.0085C27.7461 14.8155 25.198 17.3825 23.3605 20.5883L33.7716 26.5557ZM36.863 23.4554C38.1616 22.7179 39.6619 22.306 41.5021 22.306V10.306C37.7422 10.306 34.1746 11.1821 30.9371 13.0206L36.863 23.4554ZM41.5021 22.306C43.6963 22.306 45.3621 22.8493 46.732 23.7834L53.4921 13.8686C49.934 11.4427 45.8599 10.306 41.5021 10.306V22.306ZM46.732 23.7834C48.0517 24.6831 48.9928 25.8989 49.5806 27.6792L60.9755 23.9168C59.6034 19.7611 57.1005 16.3289 53.4921 13.8686L46.732 23.7834ZM55.2781 19.798H48.5161V31.798H55.2781V19.798ZM53.9252 23.2016C52.7773 20.8102 51.0211 18.7932 48.6241 17.4313L42.696 27.8647C42.763 27.9028 42.9108 27.9858 43.1069 28.3944L53.9252 23.2016ZM48.6758 17.461C46.4291 16.1547 43.9584 15.598 41.4601 15.598V27.598C42.1538 27.598 42.483 27.7413 42.6443 27.835L48.6758 17.461ZM41.4601 15.598C38.7576 15.598 36.1409 16.2537 33.7794 17.6805L39.9848 27.9515C40.3112 27.7543 40.7465 27.598 41.4601 27.598V15.598ZM33.8112 17.6614C31.4676 19.0576 29.6815 21.0376 28.4491 23.4111L39.099 28.9409C39.3786 28.4024 39.6645 28.1424 39.9529 27.9706L33.8112 17.6614ZM28.4075 23.4927C27.1863 25.935 26.6821 28.5964 26.6821 31.3H38.6821C38.6821 30.0836 38.9058 29.329 39.1406 28.8593L28.4075 23.4927ZM26.6821 31.3C26.6821 33.994 27.1931 36.6321 28.3873 39.0665L39.1608 33.7814C38.8991 33.2479 38.6821 32.47 38.6821 31.3H26.6821ZM28.4491 39.1889C29.6732 41.5465 31.4355 43.5156 33.7314 44.9322L40.0327 34.7198C39.6966 34.5124 39.3869 34.2135 39.099 33.6591L28.4491 39.1889ZM33.8588 45.0087C36.2085 46.3793 38.7965 47.002 41.4601 47.002V35.002C40.7076 35.002 40.2436 34.8407 39.9053 34.6433L33.8588 45.0087ZM41.4601 47.002C43.9584 47.002 46.4291 46.4453 48.6758 45.139L42.6443 34.765C42.483 34.8587 42.1538 35.002 41.4601 35.002V47.002ZM48.7124 45.1176C51.0545 43.7336 52.785 41.7318 53.9252 39.3564L43.1069 34.1636C42.9031 34.5882 42.7297 34.7144 42.6077 34.7864L48.7124 45.1176ZM48.5161 42.76H55.2781V30.76H48.5161V42.76ZM49.5754 34.8946C48.982 36.7087 48.0368 37.927 46.732 38.8166L53.4921 48.7314C57.1153 46.261 59.6141 42.8033 60.9807 38.6254L49.5754 34.8946ZM46.7445 38.8082C45.4215 39.7054 43.758 40.252 41.5021 40.252V52.252C45.8542 52.252 49.9307 51.1466 53.4797 48.7398L46.7445 38.8082ZM41.5021 40.252C39.6386 40.252 38.1206 39.843 36.8139 39.1171L30.9862 49.6069C34.2155 51.401 37.7655 52.252 41.5021 52.252V40.252ZM36.8909 39.1606C35.5773 38.4052 34.5517 37.3886 33.7557 36.0167L23.3764 42.0393C25.2124 45.2034 27.7428 47.7428 30.9092 49.5634L36.8909 39.1606ZM33.7834 36.065C33.0612 34.7933 32.6341 33.2577 32.6341 31.3H20.6341C20.6341 35.1103 21.4949 38.7267 23.3487 41.9909L33.7834 36.065ZM58.9143 20.8H52.9143V26.8H58.9143V20.8ZM58.9143 15.382V9.382H52.9143V15.382H58.9143ZM69.0363 15.382H75.0363V9.382H69.0363V15.382ZM69.0363 46V52H75.0363V46H69.0363ZM62.9883 46H56.9883V52H62.9883V46ZM62.9883 20.8H68.9883V14.8H62.9883V20.8ZM64.9143 20.8V15.382H52.9143V20.8H64.9143ZM58.9143 21.382H69.0363V9.382H58.9143V21.382ZM63.0363 15.382V46H75.0363V15.382H63.0363ZM69.0363 40H62.9883V52H69.0363V40ZM68.9883 46V20.8H56.9883V46H68.9883ZM62.9883 14.8H58.9143V26.8H62.9883V14.8ZM74.1311 20.8H68.1311V26.8H74.1311V20.8ZM74.1311 15.382V9.382H68.1311V15.382H74.1311ZM84.2531 15.382H90.2531V9.382H84.2531V15.382ZM84.2531 46V52H90.2531V46H84.2531ZM78.2051 46H72.2051V52H78.2051V46ZM78.2051 20.8H84.2051V14.8H78.2051V20.8ZM80.1311 20.8V15.382H68.1311V20.8H80.1311ZM74.1311 21.382H84.2531V9.382H74.1311V21.382ZM78.2531 15.382V46H90.2531V15.382H78.2531ZM84.2531 40H78.2051V52H84.2531V40ZM84.2051 46V20.8H72.2051V46H84.2051ZM78.2051 14.8H74.1311V26.8H78.2051V14.8Z" fill="black" mask="url(#path-2-outside-1_101_1034)"/>
</svg>
