<svg width="119" height="35" viewBox="0 0 119 35" fill="none" xmlns="http://www.w3.org/2000/svg">
<path d="M76.9397 17.4397C76.9397 27.0713 69.1317 34.8793 59.5 34.8793C49.8683 34.8793 42.0603 27.0713 42.0603 17.4397C42.0603 7.808 49.8683 0 59.5 0C69.1317 0 76.9397 7.808 76.9397 17.4397Z" fill="#E3ECF5"/>
<path d="M36.4181 17.4408C36.4181 27.0725 28.6101 34.8805 18.9784 34.8805C23.3384 29.4935 25.3901 27.0725 25.3901 17.4408C25.3901 7.80915 22.569 5.6422 18.9784 0.00115135C28.6101 0.00115135 36.4181 7.80915 36.4181 17.4408Z" fill="#E3ECF5"/>
<path d="M17.4396 17.4408C17.4396 27.0725 9.63166 34.8805 0 34.8805C5.38578 30.7759 11.028 27.0725 11.028 17.4408C11.028 7.80919 4.87285 3.59052 0 0.00118923C9.63166 0.00118923 17.4396 7.80919 17.4396 17.4408Z" fill="#E3ECF5"/>
<path d="M82.5819 17.4408C82.5819 7.80919 90.3899 0.00118863 100.022 0.00118947C95.6616 5.38815 93.6099 7.80919 93.6099 17.4408C93.6099 27.0725 96.4311 29.2394 100.022 34.8805C90.3899 34.8805 82.5819 27.0725 82.5819 17.4408Z" fill="#E3ECF5"/>
<path d="M101.56 17.4408C101.56 7.80919 109.368 0.00118863 119 0.00118947C113.614 4.10583 107.972 7.80919 107.972 17.4408C107.972 27.0725 114.127 31.2912 119 34.8805C109.368 34.8805 101.56 27.0725 101.56 17.4408Z" fill="#E3ECF5"/>
</svg>
